<svg xmlns="http://www.w3.org/2000/svg"  viewBox="0 0 64 64" width="64px" height="64px"><path fill="#f9e3ae" d="M39.13,1.25,17,14.63,25,29,3.25,50.83,4.5,59.42l8.81,1.27,1.31-1.87.69-4.31,4.12-.75L21,48.88l5.31-1.25L35,39l13.72,8L63,25Zm2.05,22.36L35.92,14l4.75-3.17L52.92,23.08,49.83,28Z"/><path fill="#f6d397" d="M51.51 12.58L47.46 16.63 52.92 23.08 49.83 28 41.18 23.61 41.58 22.51 5.39 58.7 4.5 59.42 13.31 60.69 14.63 58.81 15.31 54.5 19.43 53.75 21 48.88 26.31 47.63 35 39 48.72 47 63 25 51.51 12.58z"/><path fill="#faefde" d="M25.64,34.19,4.86,55,3.09,51.09l22-22L26,30.35A3,3,0,0,1,25.64,34.19Z"/><path fill="#8d6c9f" d="M25.8 15.46l-1.41 1.41a1 1 0 1 0 1.41 1.41l1.41-1.41a1 1 0 0 0-1.41-1.41zM29.33 19l-1.41 1.41a1 1 0 1 0 1.41 1.41l1.41-1.41A1 1 0 0 0 29.33 19zM32.87 22.53l-1.41 1.41a1 1 0 1 0 1.41 1.41l1.41-1.41a1 1 0 0 0-1.41-1.41zM36.4 26.07L35 27.48A1 1 0 1 0 36.4 28.9l1.41-1.41a1 1 0 0 0-1.41-1.41zM39.94 29.6L38.53 31a1 1 0 1 0 1.41 1.41L41.35 31a1 1 0 0 0-1.41-1.41zM43.48 33.14l-1.41 1.41A1 1 0 1 0 43.48 36l1.41-1.41a1 1 0 0 0-1.41-1.41zM47 36.67L45.6 38.09A1 1 0 1 0 47 39.5l1.41-1.41A1 1 0 0 0 47 36.67z"/><path fill="#8d6c9f" d="M62.86,22.82,41.06,1A3,3,0,0,0,37.35.61L17.74,12.86a3,3,0,0,0-1,4.09l6.67,11.12a1,1,0,0,1-.15,1.22L2.83,49.74a2,2,0,0,0-.56,1.74l1.21,7.27A2,2,0,0,0,5.12,60.4l7.27,1.21.33,0a2,2,0,0,0,1.42-.59L15,60.2a2,2,0,0,0,.57-1.13l.55-3.87,3.4-.46A2,2,0,0,0,21.23,53l.46-3.41,4-.63a2,2,0,0,0,1.1-.56l7.81-7.81a1,1,0,0,1,1.22-.15l11.12,6.67a3,3,0,0,0,4.09-1L63.28,26.53A3,3,0,0,0,62.86,22.82Zm-1.27,2.65L49.33,45.08a1,1,0,0,1-1.36.33L36.84,38.74a3,3,0,0,0-3.67.45L25.36,47l-4,.63a2,2,0,0,0-1.67,1.71l-.46,3.41-3.4.46a2,2,0,0,0-1.71,1.7l-.55,3.87-.86.86L5.45,58.43,5,55.93a1,1,0,0,0,.25-.17L15.9,45.16a1,1,0,0,0-1.41-1.41L4.65,53.58l-.4-2.42L24.69,30.71A3,3,0,0,0,25.14,27L18.47,15.92a1,1,0,0,1,.33-1.36L38.41,2.3a1,1,0,0,1,1.24.14L61.44,24.23A1,1,0,0,1,61.58,25.47Z"/><path fill="#8d6c9f" d="M41.92 10.37a2 2 0 0 0-2.47-.28L36 12.25A2 2 0 0 0 35.35 15l4.93 7.67a3 3 0 0 0 .9.9l7.67 4.93a2 2 0 0 0 1.08.32 2 2 0 0 0 .44 0 2 2 0 0 0 1.26-.89l2.17-3.47A2 2 0 0 0 53.52 22zm8 16.49l-7.67-4.93a1 1 0 0 1-.3-.3L37 14l3.47-2.17h0l11.6 11.6zM20.14 38.09l-2.83 2.83a1 1 0 1 0 1.41 1.41l2.83-2.83a1 1 0 0 0-1.41-1.41z"/></svg>