<svg xmlns="http://www.w3.org/2000/svg"  viewBox="0 0 64 64" width="64px" height="64px"><path d="M 38.789063 0.148438 C 38.292969 0.175781 37.800781 0.328125 37.355469 0.605469 L 17.738281 12.863281 C 16.363281 13.722656 15.921875 15.558594 16.757813 16.953125 L 23.429688 28.070313 C 23.664063 28.464844 23.605469 28.96875 23.28125 29.292969 L 2.828125 49.746094 C 2.371094 50.199219 2.160156 50.851563 2.265625 51.488281 L 3.480469 58.761719 C 3.621094 59.605469 4.28125 60.261719 5.125 60.40625 L 12.394531 61.617188 C 12.503906 61.636719 12.617188 61.644531 12.722656 61.644531 C 13.25 61.644531 13.761719 61.4375 14.140625 61.058594 L 15 60.199219 C 15.304688 59.894531 15.503906 59.496094 15.5625 59.066406 L 16.117188 55.199219 L 19.519531 54.734375 C 20.410156 54.617188 21.113281 53.914063 21.234375 53.023438 L 21.695313 49.609375 L 25.675781 48.984375 C 26.097656 48.917969 26.476563 48.722656 26.78125 48.421875 L 34.59375 40.605469 C 34.917969 40.28125 35.417969 40.21875 35.8125 40.453125 L 46.933594 47.125 C 48.328125 47.964844 50.160156 47.523438 51.019531 46.144531 L 63.28125 26.53125 C 64.023438 25.339844 63.847656 23.8125 62.855469 22.820313 L 41.0625 1.03125 C 40.441406 0.40625 39.613281 0.105469 38.789063 0.148438 Z M 38.945313 2.148438 C 39.203125 2.148438 39.457031 2.25 39.652344 2.445313 L 61.441406 24.234375 C 61.773438 24.566406 61.832031 25.074219 61.582031 25.472656 L 49.324219 45.085938 C 49.039063 45.546875 48.429688 45.691406 47.964844 45.410156 L 36.84375 38.738281 C 35.660156 38.03125 34.15625 38.214844 33.179688 39.191406 L 25.363281 47.003906 L 21.386719 47.636719 C 20.503906 47.773438 19.832031 48.457031 19.714844 49.34375 L 19.253906 52.753906 L 15.851563 53.214844 C 14.96875 53.332031 14.265625 54.03125 14.140625 54.910156 L 13.589844 58.78125 L 12.730469 59.640625 L 5.453125 58.429688 L 5.039063 55.933594 C 5.128906 55.886719 5.21875 55.839844 5.292969 55.765625 L 15.898438 45.15625 C 16.289063 44.765625 16.289063 44.132813 15.898438 43.742188 C 15.507813 43.351563 14.875 43.351563 14.484375 43.742188 L 4.648438 53.582031 L 4.242188 51.15625 L 24.695313 30.703125 C 25.671875 29.730469 25.855469 28.222656 25.144531 27.039063 L 18.472656 15.921875 C 18.195313 15.457031 18.34375 14.84375 18.800781 14.558594 L 38.414063 2.304688 C 38.578125 2.199219 38.761719 2.148438 38.945313 2.148438 Z M 40.402344 9.78125 C 40.070313 9.796875 39.742188 9.898438 39.441406 10.082031 L 35.96875 12.253906 C 35.511719 12.542969 35.195313 12.988281 35.078125 13.515625 C 34.960938 14.039063 35.058594 14.578125 35.347656 15.03125 L 40.277344 22.703125 C 40.511719 23.070313 40.816406 23.375 41.179688 23.609375 L 48.855469 28.539063 C 49.179688 28.75 49.550781 28.859375 49.929688 28.859375 C 50.078125 28.859375 50.222656 28.839844 50.371094 28.808594 C 50.898438 28.691406 51.34375 28.371094 51.628906 27.917969 L 53.800781 24.441406 C 54.296875 23.648438 54.179688 22.632813 53.519531 21.96875 L 41.917969 10.367188 C 41.503906 9.953125 40.949219 9.753906 40.402344 9.78125 Z M 40.503906 11.78125 L 52.105469 23.386719 L 49.9375 26.855469 L 42.261719 21.925781 C 42.140625 21.847656 42.039063 21.746094 41.960938 21.625 L 37.03125 13.953125 Z M 26.503906 15.167969 C 26.246094 15.167969 25.992188 15.265625 25.796875 15.460938 L 24.386719 16.875 C 23.992188 17.265625 23.992188 17.894531 24.386719 18.285156 C 24.578125 18.480469 24.835938 18.578125 25.09375 18.578125 C 25.347656 18.578125 25.605469 18.480469 25.796875 18.285156 L 27.214844 16.875 C 27.605469 16.480469 27.605469 15.851563 27.214844 15.460938 C 27.015625 15.265625 26.761719 15.167969 26.503906 15.167969 Z M 30.039063 18.703125 C 29.785156 18.703125 29.527344 18.800781 29.332031 18.996094 L 27.917969 20.410156 C 27.527344 20.800781 27.527344 21.433594 27.917969 21.824219 C 28.113281 22.019531 28.367188 22.117188 28.625 22.117188 C 28.882813 22.117188 29.136719 22.019531 29.332031 21.824219 L 30.746094 20.410156 C 31.136719 20.019531 31.136719 19.386719 30.746094 18.996094 C 30.550781 18.800781 30.292969 18.703125 30.039063 18.703125 Z M 33.578125 22.238281 C 33.320313 22.238281 33.0625 22.335938 32.871094 22.53125 L 31.453125 23.945313 C 31.0625 24.335938 31.0625 24.96875 31.453125 25.359375 C 31.648438 25.554688 31.90625 25.652344 32.160156 25.652344 C 32.417969 25.652344 32.675781 25.554688 32.871094 25.359375 L 34.28125 23.945313 C 34.675781 23.554688 34.675781 22.921875 34.28125 22.53125 C 34.085938 22.335938 33.832031 22.238281 33.578125 22.238281 Z M 37.109375 25.773438 C 36.855469 25.773438 36.597656 25.871094 36.40625 26.066406 L 34.988281 27.484375 C 34.597656 27.875 34.597656 28.507813 34.988281 28.894531 C 35.183594 29.089844 35.441406 29.1875 35.699219 29.1875 C 35.953125 29.1875 36.210938 29.089844 36.40625 28.894531 L 37.816406 27.480469 C 38.210938 27.089844 38.210938 26.457031 37.816406 26.066406 C 37.625 25.871094 37.367188 25.773438 37.109375 25.773438 Z M 40.644531 29.3125 C 40.390625 29.3125 40.136719 29.40625 39.9375 29.605469 L 38.527344 31.015625 C 38.132813 31.410156 38.132813 32.039063 38.527344 32.433594 C 38.71875 32.625 38.976563 32.722656 39.234375 32.722656 C 39.488281 32.722656 39.746094 32.625 39.9375 32.433594 L 41.355469 31.015625 C 41.746094 30.625 41.746094 29.996094 41.355469 29.605469 C 41.15625 29.40625 40.902344 29.3125 40.644531 29.3125 Z M 44.183594 32.84375 C 43.925781 32.847656 43.671875 32.945313 43.476563 33.140625 L 42.0625 34.550781 C 41.671875 34.945313 41.671875 35.574219 42.0625 35.96875 C 42.257813 36.160156 42.511719 36.261719 42.769531 36.261719 C 43.027344 36.261719 43.28125 36.160156 43.476563 35.96875 L 44.890625 34.550781 C 45.28125 34.160156 45.28125 33.53125 44.890625 33.140625 C 44.695313 32.941406 44.441406 32.84375 44.183594 32.84375 Z M 47.71875 36.378906 C 47.464844 36.378906 47.207031 36.476563 47.011719 36.671875 L 45.59375 38.089844 C 45.203125 38.476563 45.203125 39.109375 45.59375 39.5 C 45.789063 39.695313 46.046875 39.796875 46.300781 39.796875 C 46.558594 39.796875 46.816406 39.695313 47.011719 39.5 L 48.425781 38.089844 C 48.816406 37.699219 48.816406 37.066406 48.425781 36.671875 C 48.230469 36.476563 47.972656 36.378906 47.71875 36.378906 Z M 20.847656 37.796875 C 20.59375 37.796875 20.335938 37.890625 20.140625 38.089844 L 17.3125 40.917969 C 16.921875 41.308594 16.921875 41.9375 17.3125 42.328125 C 17.507813 42.523438 17.761719 42.625 18.019531 42.625 C 18.277344 42.625 18.53125 42.523438 18.726563 42.328125 L 21.554688 39.5 C 21.945313 39.109375 21.945313 38.480469 21.554688 38.089844 C 21.359375 37.890625 21.101563 37.796875 20.847656 37.796875 Z"/></svg>